<svg id="visual" viewBox="0 0 960 240" width="960" height="240" xmlns="http://www.w3.org/2000/svg" xmlns:xlink="http://www.w3.org/1999/xlink" version="1.1"><rect x="0" y="0" width="960" height="240" fill="#fca311"></rect><path d="M0 186L14.5 179C29 172 58 158 87.2 144.8C116.3 131.7 145.7 119.3 174.8 124.5C204 129.7 233 152.3 262 165.5C291 178.7 320 182.3 349 170.3C378 158.3 407 130.7 436.2 120.3C465.3 110 494.7 117 523.8 126.5C553 136 582 148 611 146.7C640 145.3 669 130.7 698 126C727 121.3 756 126.7 785.2 137.5C814.3 148.3 843.7 164.7 872.8 168C902 171.3 931 161.7 945.5 156.8L960 152L960 241L945.5 241C931 241 902 241 872.8 241C843.7 241 814.3 241 785.2 241C756 241 727 241 698 241C669 241 640 241 611 241C582 241 553 241 523.8 241C494.7 241 465.3 241 436.2 241C407 241 378 241 349 241C320 241 291 241 262 241C233 241 204 241 174.8 241C145.7 241 116.3 241 87.2 241C58 241 29 241 14.5 241L0 241Z" fill="#0b132b" stroke-linecap="round" stroke-linejoin="miter"></path></svg>